<svg width="400" height="225" viewBox="0 0 400 225" fill="none" xmlns="http://www.w3.org/2000/svg">
<rect width="400" height="225" fill="#F6F6F6"/>
<rect width="400" height="225" fill="url(#paint0_linear)"/>
<path d="M126.409 118H133.523V116.75H127.818V112.795H133.068V111.545H127.818V107.614H133.432V106.364H126.409V118ZM135.79 118H137.131V112.477C137.131 111.295 138.062 110.432 139.335 110.432C139.693 110.432 140.062 110.5 140.153 110.523V109.159C140 109.148 139.648 109.136 139.449 109.136C138.403 109.136 137.494 109.727 137.176 110.591H137.085V109.273H135.79V118ZM141.743 118H143.084V112.477C143.084 111.301 144.016 110.432 145.288 110.432C145.624 110.432 145.874 110.494 146.061 110.591L146.516 109.455C146.243 109.261 145.885 109.136 145.402 109.136C144.345 109.136 143.442 109.727 143.129 110.591H143.038V109.273H141.743V118ZM151.163 118.182C153.527 118.182 155.118 116.386 155.118 113.682C155.118 110.955 153.527 109.159 151.163 109.159C148.8 109.159 147.209 110.955 147.209 113.682C147.209 116.386 148.8 118.182 151.163 118.182ZM151.163 116.977C149.368 116.977 148.55 115.432 148.55 113.682C148.55 111.932 149.368 110.364 151.163 110.364C152.959 110.364 153.777 111.932 153.777 113.682C153.777 115.432 152.959 116.977 151.163 116.977ZM157.165 118H158.506V112.477C158.506 111.301 159.438 110.432 160.71 110.432C161.045 110.432 161.295 110.494 161.483 110.591L161.938 109.455C161.665 109.261 161.307 109.136 160.824 109.136C159.767 109.136 158.864 109.727 158.551 110.591H158.46V109.273H157.165V118ZM171.101 118.182C172.783 118.182 173.351 117.136 173.646 116.659H173.805V118H175.101V106.364H173.76V110.659H173.646C173.351 110.205 172.828 109.159 171.124 109.159C168.919 109.159 167.396 110.909 167.396 113.659C167.396 116.432 168.919 118.182 171.101 118.182ZM171.283 116.977C169.601 116.977 168.737 115.5 168.737 113.636C168.737 111.795 169.578 110.364 171.283 110.364C172.919 110.364 173.783 111.682 173.783 113.636C173.783 115.614 172.896 116.977 171.283 116.977ZM183.243 114.432C183.243 116.068 181.993 116.818 180.993 116.818C179.879 116.818 179.084 116 179.084 114.727V109.273H177.743V114.818C177.743 117.045 178.925 118.114 180.561 118.114C181.879 118.114 182.743 117.409 183.152 116.523H183.243V118H184.584V109.273H183.243V114.432ZM187.04 118H188.381V112.477C188.381 111.295 189.312 110.432 190.585 110.432C190.943 110.432 191.312 110.5 191.403 110.523V109.159C191.25 109.148 190.898 109.136 190.699 109.136C189.653 109.136 188.744 109.727 188.426 110.591H188.335V109.273H187.04V118ZM192.993 118H194.334V109.273H192.993V118ZM193.675 107.818C194.197 107.818 194.629 107.409 194.629 106.909C194.629 106.409 194.197 106 193.675 106C193.152 106 192.72 106.409 192.72 106.909C192.72 107.409 193.152 107.818 193.675 107.818ZM198.131 112.75C198.131 111.227 199.074 110.364 200.358 110.364C201.602 110.364 202.358 111.176 202.358 112.545V118H203.699V112.455C203.699 110.227 202.511 109.159 200.744 109.159C199.426 109.159 198.608 109.75 198.199 110.636H198.085V109.273H196.79V118H198.131V112.75ZM209.672 121.455C211.763 121.455 213.445 120.5 213.445 118.25V109.273H212.149V110.659H212.013C211.717 110.205 211.172 109.159 209.467 109.159C207.263 109.159 205.74 110.909 205.74 113.591C205.74 116.318 207.331 117.864 209.445 117.864C211.149 117.864 211.695 116.864 211.99 116.386H212.104V118.159C212.104 119.614 211.081 120.273 209.672 120.273C208.087 120.273 207.53 119.438 207.172 118.955L206.104 119.705C206.649 120.619 207.723 121.455 209.672 121.455ZM209.626 116.659C207.945 116.659 207.081 115.386 207.081 113.568C207.081 111.795 207.922 110.364 209.626 110.364C211.263 110.364 212.126 111.682 212.126 113.568C212.126 115.5 211.24 116.659 209.626 116.659ZM221.74 106.364H220.399V118H221.74V106.364ZM227.741 118.182C230.105 118.182 231.696 116.386 231.696 113.682C231.696 110.955 230.105 109.159 227.741 109.159C225.378 109.159 223.787 110.955 223.787 113.682C223.787 116.386 225.378 118.182 227.741 118.182ZM227.741 116.977C225.946 116.977 225.128 115.432 225.128 113.682C225.128 111.932 225.946 110.364 227.741 110.364C229.537 110.364 230.355 111.932 230.355 113.682C230.355 115.432 229.537 116.977 227.741 116.977ZM236.311 118.205C237.834 118.205 238.629 117.386 238.902 116.818H238.97V118H240.311V112.25C240.311 109.477 238.197 109.159 237.084 109.159C235.766 109.159 234.266 109.614 233.584 111.205L234.857 111.659C235.152 111.023 235.851 110.341 237.129 110.341C238.362 110.341 238.97 110.994 238.97 112.114V112.159C238.97 112.807 238.311 112.75 236.72 112.955C235.101 113.165 233.334 113.523 233.334 115.523C233.334 117.227 234.652 118.205 236.311 118.205ZM236.516 117C235.447 117 234.675 116.523 234.675 115.591C234.675 114.568 235.607 114.25 236.652 114.114C237.22 114.045 238.743 113.886 238.97 113.614V114.841C238.97 115.932 238.107 117 236.516 117ZM246.054 118.182C247.736 118.182 248.304 117.136 248.599 116.659H248.759V118H250.054V106.364H248.713V110.659H248.599C248.304 110.205 247.781 109.159 246.077 109.159C243.872 109.159 242.349 110.909 242.349 113.659C242.349 116.432 243.872 118.182 246.054 118.182ZM246.236 116.977C244.554 116.977 243.69 115.5 243.69 113.636C243.69 111.795 244.531 110.364 246.236 110.364C247.872 110.364 248.736 111.682 248.736 113.636C248.736 115.614 247.849 116.977 246.236 116.977ZM252.696 118H254.037V109.273H252.696V118ZM253.378 107.818C253.901 107.818 254.332 107.409 254.332 106.909C254.332 106.409 253.901 106 253.378 106C252.855 106 252.423 106.409 252.423 106.909C252.423 107.409 252.855 107.818 253.378 107.818ZM257.834 112.75C257.834 111.227 258.777 110.364 260.061 110.364C261.305 110.364 262.061 111.176 262.061 112.545V118H263.402V112.455C263.402 110.227 262.214 109.159 260.447 109.159C259.129 109.159 258.311 109.75 257.902 110.636H257.788V109.273H256.493V118H257.834V112.75ZM269.375 121.455C271.466 121.455 273.148 120.5 273.148 118.25V109.273H271.852V110.659H271.716C271.42 110.205 270.875 109.159 269.17 109.159C266.966 109.159 265.443 110.909 265.443 113.591C265.443 116.318 267.034 117.864 269.148 117.864C270.852 117.864 271.398 116.864 271.693 116.386H271.807V118.159C271.807 119.614 270.784 120.273 269.375 120.273C267.79 120.273 267.233 119.438 266.875 118.955L265.807 119.705C266.352 120.619 267.426 121.455 269.375 121.455ZM269.33 116.659C267.648 116.659 266.784 115.386 266.784 113.568C266.784 111.795 267.625 110.364 269.33 110.364C270.966 110.364 271.83 111.682 271.83 113.568C271.83 115.5 270.943 116.659 269.33 116.659Z" fill="#BFBFBF"/>
<defs>
<linearGradient id="paint0_linear" x1="73.5" y1="225" x2="400" y2="225" gradientUnits="userSpaceOnUse">
<stop stop-color="#E7E7E7"/>
<stop offset="1" stop-color="#EDEDED" stop-opacity="0"/>
</linearGradient>
</defs>
</svg>
