<svg width="236" height="37" viewBox="0 0 236 37" fill="none" xmlns="http://www.w3.org/2000/svg">
<path d="M1 17H5.92V8.02H5.96L10.6 17H15.06L19.54 8.02H19.58V17H24.5V2.68H17.66L12.76 12.4H12.72L7.76 2.68H1V17ZM31.1078 17.32C33.9478 17.32 36.2078 16.34 37.2278 14.76H37.2478L37.8878 17H41.9878V10.32C41.9878 7.78 38.9878 6.34 34.4478 6.34C31.1878 6.34 27.9478 7.22 25.9478 8.58L27.1878 11.04C29.1478 9.78 31.9478 8.98 34.4478 8.98C36.1878 8.98 37.3278 9.36 37.3278 9.86C37.3278 10.06 37.0678 10.22 36.6278 10.26L32.6878 10.62C28.4078 11.02 25.9078 12.42 25.9078 14.48C25.9078 16.28 27.8278 17.32 31.1078 17.32ZM32.7878 14.52C31.3878 14.52 30.6478 14.22 30.6478 13.7C30.6478 13.16 31.4678 12.86 33.0078 12.74L37.2478 12.36V12.4C37.2478 13.66 35.4678 14.52 32.7878 14.52ZM50.7842 17.32C53.3242 17.32 55.1042 16.72 56.7042 15.28L55.7042 12.62C54.5842 13.64 53.5442 14.14 52.1442 14.14C50.7042 14.14 50.0642 13.5 50.0642 12.26V9.56H56.3642V6.68H50.0642V3.08L45.3442 3.92V6.68H42.4642V9.56H45.3442L45.3642 13.32C45.3642 15.8 47.4242 17.32 50.7842 17.32ZM65.3545 17.32C67.8945 17.32 69.6745 16.72 71.2745 15.28L70.2745 12.62C69.1545 13.64 68.1145 14.14 66.7145 14.14C65.2745 14.14 64.6345 13.5 64.6345 12.26V9.56H70.9345V6.68H64.6345V3.08L59.9145 3.92V6.68H57.0345V9.56H59.9145L59.9345 13.32C59.9345 15.8 61.9945 17.32 65.3545 17.32ZM80.1648 5L80.6048 4.34L76.4648 1.6L76.0048 2.26L80.1648 5ZM80.8448 17.32C83.6048 17.32 86.2448 16.7 87.6448 15.8L86.3448 13.56C85.2848 14.16 83.2248 14.6 81.1848 14.6C79.2448 14.6 77.4448 14.12 76.9048 12.92H87.7048C87.8048 12.58 87.8448 12.14 87.8448 11.84C87.8448 8.52 84.7448 6.34 80.0448 6.34C75.2648 6.34 71.9248 8.6 71.9248 11.82C71.9248 15.18 75.5248 17.32 80.8448 17.32ZM76.8248 10.9C77.0048 9.74 78.3048 8.92 80.0048 8.92C81.6648 8.92 83.0248 9.72 83.0848 10.9H76.8248ZM97.197 17.32C102.217 17.32 105.497 15.16 105.497 11.84C105.497 8.52 102.217 6.34 97.197 6.34C92.197 6.34 88.917 8.52 88.917 11.84C88.917 15.16 92.197 17.32 97.197 17.32ZM97.197 14.56C95.037 14.56 93.637 13.48 93.637 11.84C93.637 10.2 95.037 9.12 97.197 9.12C99.357 9.12 100.757 10.2 100.757 11.84C100.757 13.48 99.357 14.56 97.197 14.56ZM120.486 17.36C123.446 17.36 126.126 16.3 127.506 14.66H127.526L127.726 17H131.846V8.74H119.126V11.38H126.806C126.626 12.88 124.626 13.96 122.026 13.96C118.686 13.96 116.446 12.36 116.446 9.98C116.446 7.52 118.446 5.86 121.366 5.86C123.266 5.86 124.886 6.66 125.286 7.82L130.146 6.98C129.546 4.2 125.966 2.32 121.386 2.32C115.306 2.32 111.226 5.46 111.226 10.14C111.226 14.44 114.946 17.36 120.486 17.36ZM138.139 17.32C140.979 17.32 143.239 16.34 144.259 14.76H144.279L144.919 17H149.019V10.32C149.019 7.78 146.019 6.34 141.479 6.34C138.219 6.34 134.979 7.22 132.979 8.58L134.219 11.04C136.179 9.78 138.979 8.98 141.479 8.98C143.219 8.98 144.359 9.36 144.359 9.86C144.359 10.06 144.099 10.22 143.659 10.26L139.719 10.62C135.439 11.02 132.939 12.42 132.939 14.48C132.939 16.28 134.859 17.32 138.139 17.32ZM139.819 14.52C138.419 14.52 137.679 14.22 137.679 13.7C137.679 13.16 138.499 12.86 140.039 12.74L144.279 12.36V12.4C144.279 13.66 142.499 14.52 139.819 14.52ZM155.608 17.34C158.188 17.34 160.148 16.22 161.108 14.5H161.128L161.628 17H165.708V6.68H160.988V11.52C160.988 13.48 159.768 14.64 157.768 14.64C156.008 14.64 154.988 13.66 154.988 12.02V6.68H150.288L150.268 12.52C150.248 15.5 152.328 17.34 155.608 17.34ZM174.983 17.32C177.523 17.32 179.303 16.72 180.903 15.28L179.903 12.62C178.783 13.64 177.743 14.14 176.343 14.14C174.903 14.14 174.263 13.5 174.263 12.26V9.56H180.563V6.68H174.263V3.08L169.543 3.92V6.68H166.663V9.56H169.543L169.563 13.32C169.563 15.8 171.623 17.32 174.983 17.32ZM181.894 17H186.614V12.16C186.614 10.2 187.834 9.04 189.834 9.04C191.594 9.04 192.614 10.02 192.614 11.66V17H197.314L197.334 11.16C197.354 8.18 195.274 6.34 191.994 6.34C189.414 6.34 187.634 7.46 186.654 9.18H186.634V2.08H181.894V17ZM201.189 5.58C202.709 5.58 203.809 4.62 203.809 3.26C203.809 1.9 202.709 0.959999 201.189 0.959999C199.669 0.959999 198.569 1.9 198.569 3.26C198.569 4.62 199.669 5.58 201.189 5.58ZM198.829 17H203.549V6.68H198.829V17ZM213.814 17.32C216.574 17.32 219.214 16.7 220.614 15.8L219.314 13.56C218.254 14.16 216.194 14.6 214.154 14.6C212.214 14.6 210.414 14.12 209.874 12.92H220.674C220.774 12.58 220.814 12.14 220.814 11.84C220.814 8.52 217.714 6.34 213.014 6.34C208.234 6.34 204.894 8.6 204.894 11.82C204.894 15.18 208.494 17.32 213.814 17.32ZM209.794 10.9C209.974 9.74 211.274 8.92 212.974 8.92C214.634 8.92 215.994 9.72 216.054 10.9H209.794ZM231.126 6.34C229.266 6.34 227.586 7.38 226.826 9.06H226.806L226.166 6.68H222.226V17H226.966V12.4C226.966 10.44 227.766 9.2 229.106 9.2C230.086 9.2 230.766 10.18 230.846 11.72L235.166 10.88C235.006 8.12 233.426 6.34 231.126 6.34ZM6.416 24.632C4.032 24.632 2.224 25.624 1.552 27.288H1.536L1.456 24.952H0.64V33H1.52V29.752C1.52 27.064 3.296 25.464 6.304 25.464C8.672 25.464 10.08 26.648 10.08 28.664V33H10.96V28.584C10.96 26.104 9.264 24.632 6.416 24.632ZM17.8356 33.32C21.3716 33.32 23.6756 31.608 23.6756 28.984C23.6756 26.36 21.3716 24.632 17.8356 24.632C14.3156 24.632 11.9956 26.36 11.9956 28.984C11.9956 31.608 14.3156 33.32 17.8356 33.32ZM17.8356 32.504C14.8436 32.504 12.8756 31.112 12.8756 28.984C12.8756 26.856 14.8436 25.464 17.8356 25.464C20.8276 25.464 22.7956 26.856 22.7956 28.984C22.7956 31.112 20.8276 32.504 17.8356 32.504ZM28.0236 33H28.9836L34.0076 24.952H32.9996L28.5196 32.2H28.5036L24.0396 24.952H23.0156L28.0236 33ZM35.216 23.304C35.648 23.304 35.936 23.016 35.936 22.6C35.936 22.184 35.648 21.896 35.216 21.896C34.8 21.896 34.512 22.184 34.512 22.6C34.512 23.016 34.8 23.304 35.216 23.304ZM34.784 33H35.664V24.952H34.784V33ZM42.5491 33.32C45.3651 33.32 47.8291 31.944 48.5971 29.976L47.7491 29.672C47.1571 31.352 45.0451 32.536 42.6451 32.536C39.8931 32.536 37.7971 31.08 37.8131 28.984C37.8131 26.888 39.7331 25.432 42.4371 25.432C44.4371 25.432 46.0531 26.28 46.5971 27.576L47.4131 27.272C46.7571 25.688 44.7731 24.632 42.3571 24.632C39.1891 24.632 36.9331 26.408 36.9331 28.984C36.9331 31.544 39.3171 33.32 42.5491 33.32ZM55.5139 33.32C57.9139 33.32 60.2979 32.472 61.3539 31.304L60.8099 30.664C59.8979 31.704 57.7699 32.472 55.5939 32.472C52.7459 32.472 50.5379 31.16 50.3939 29.336H60.5219C60.5379 29.224 60.5379 29.048 60.5379 28.936C60.5379 26.44 58.2339 24.632 55.0339 24.632C51.7379 24.632 49.4019 26.44 49.4019 28.936C49.4019 31.48 51.9619 33.32 55.5139 33.32ZM50.3779 28.52C50.5379 26.76 52.4739 25.496 55.0019 25.496C57.4979 25.496 59.4339 26.712 59.5939 28.52H50.3779ZM71.8386 33H73.0066L76.8626 25.736H76.8786L80.7986 33H81.9666L86.2866 24.952H85.3266L81.3746 32.2H81.3586L77.4706 24.952H76.2866L72.4466 32.184H72.4306L68.3986 24.952H67.4226L71.8386 33ZM92.0764 33.32C94.4764 33.32 96.8604 32.472 97.9164 31.304L97.3724 30.664C96.4604 31.704 94.3324 32.472 92.1564 32.472C89.3084 32.472 87.1004 31.16 86.9564 29.336H97.0844C97.1004 29.224 97.1004 29.048 97.1004 28.936C97.1004 26.44 94.7964 24.632 91.5964 24.632C88.3004 24.632 85.9644 26.44 85.9644 28.936C85.9644 31.48 88.5244 33.32 92.0764 33.32ZM86.9404 28.52C87.1004 26.76 89.0364 25.496 91.5644 25.496C94.0604 25.496 95.9964 26.712 96.1564 28.52H86.9404ZM104.825 33.32C108.249 33.32 110.617 31.544 110.617 28.984C110.617 26.408 108.249 24.632 104.841 24.632C102.489 24.632 100.585 25.576 99.8485 27.016H99.8325V21.272H98.9525V33H99.7525L99.8165 30.936H99.8325C100.553 32.376 102.473 33.32 104.825 33.32ZM104.777 32.504C101.849 32.504 99.8165 31.048 99.8165 28.984C99.8165 26.904 101.849 25.464 104.777 25.464C107.689 25.464 109.737 26.904 109.737 28.984C109.737 31.048 107.689 32.504 104.777 32.504ZM123.006 33.32C125.358 33.32 127.278 32.376 127.998 30.936H128.014L128.078 33H128.878V21.272H127.998V27.016H127.982C127.246 25.576 125.342 24.632 122.99 24.632C119.582 24.632 117.214 26.408 117.214 28.984C117.214 31.544 119.582 33.32 123.006 33.32ZM123.054 32.504C120.142 32.504 118.094 31.048 118.094 28.984C118.094 26.904 120.142 25.464 123.054 25.464C125.982 25.464 128.014 26.904 128.014 28.984C128.014 31.048 125.982 32.504 123.054 32.504ZM136.108 33.32C138.508 33.32 140.892 32.472 141.948 31.304L141.404 30.664C140.492 31.704 138.364 32.472 136.188 32.472C133.34 32.472 131.132 31.16 130.988 29.336H141.116C141.132 29.224 141.132 29.048 141.132 28.936C141.132 26.44 138.828 24.632 135.628 24.632C132.332 24.632 129.996 26.44 129.996 28.936C129.996 31.48 132.556 33.32 136.108 33.32ZM130.972 28.52C131.132 26.76 133.068 25.496 135.596 25.496C138.092 25.496 140.028 26.712 140.188 28.52H130.972ZM146.211 33H147.171L152.195 24.952H151.187L146.707 32.2H146.691L142.227 24.952H141.203L146.211 33ZM157.826 33.32C160.226 33.32 162.61 32.472 163.666 31.304L163.122 30.664C162.21 31.704 160.082 32.472 157.906 32.472C155.058 32.472 152.85 31.16 152.706 29.336H162.834C162.85 29.224 162.85 29.048 162.85 28.936C162.85 26.44 160.546 24.632 157.346 24.632C154.05 24.632 151.714 26.44 151.714 28.936C151.714 31.48 154.274 33.32 157.826 33.32ZM152.69 28.52C152.85 26.76 154.786 25.496 157.314 25.496C159.81 25.496 161.746 26.712 161.906 28.52H152.69ZM164.703 33H165.583V21.272H164.703V33ZM172.539 33.32C176.075 33.32 178.379 31.608 178.379 28.984C178.379 26.36 176.075 24.632 172.539 24.632C169.019 24.632 166.699 26.36 166.699 28.984C166.699 31.608 169.019 33.32 172.539 33.32ZM172.539 32.504C169.547 32.504 167.579 31.112 167.579 28.984C167.579 26.856 169.547 25.464 172.539 25.464C175.531 25.464 177.499 26.856 177.499 28.984C177.499 31.112 175.531 32.504 172.539 32.504ZM179.499 36.36H180.379V30.936H180.395C181.131 32.376 183.035 33.32 185.387 33.32C188.795 33.32 191.163 31.544 191.163 28.984C191.163 26.408 188.795 24.632 185.371 24.632C183.019 24.632 181.099 25.576 180.379 27.032H180.363L180.299 24.952H179.499V36.36ZM185.323 32.504C182.395 32.504 180.363 31.048 180.363 28.984C180.363 26.904 182.395 25.464 185.323 25.464C188.235 25.464 190.283 26.904 190.283 28.984C190.283 31.048 188.235 32.504 185.323 32.504ZM198.233 33.32C200.633 33.32 203.017 32.472 204.073 31.304L203.529 30.664C202.617 31.704 200.489 32.472 198.313 32.472C195.465 32.472 193.257 31.16 193.113 29.336H203.241C203.257 29.224 203.257 29.048 203.257 28.936C203.257 26.44 200.953 24.632 197.753 24.632C194.457 24.632 192.121 26.44 192.121 28.936C192.121 31.48 194.681 33.32 198.233 33.32ZM193.097 28.52C193.257 26.76 195.193 25.496 197.721 25.496C200.217 25.496 202.153 26.712 202.313 28.52H193.097ZM209.445 24.632C207.877 24.632 206.597 25.448 205.989 26.856H205.973L205.925 24.952H205.109V33H205.989V29.336C205.989 27.016 207.317 25.464 209.365 25.464C210.693 25.464 211.669 26.184 211.781 27.64L212.581 27.384C212.389 25.576 211.157 24.632 209.445 24.632Z" fill="#161616"/>
<path d="M1 17H5.92V8.02H5.96L10.6 17H15.06L19.54 8.02H19.58V17H24.5V2.68H17.66L12.76 12.4H12.72L7.76 2.68H1V17ZM31.1078 17.32C33.9478 17.32 36.2078 16.34 37.2278 14.76H37.2478L37.8878 17H41.9878V10.32C41.9878 7.78 38.9878 6.34 34.4478 6.34C31.1878 6.34 27.9478 7.22 25.9478 8.58L27.1878 11.04C29.1478 9.78 31.9478 8.98 34.4478 8.98C36.1878 8.98 37.3278 9.36 37.3278 9.86C37.3278 10.06 37.0678 10.22 36.6278 10.26L32.6878 10.62C28.4078 11.02 25.9078 12.42 25.9078 14.48C25.9078 16.28 27.8278 17.32 31.1078 17.32ZM32.7878 14.52C31.3878 14.52 30.6478 14.22 30.6478 13.7C30.6478 13.16 31.4678 12.86 33.0078 12.74L37.2478 12.36V12.4C37.2478 13.66 35.4678 14.52 32.7878 14.52ZM50.7842 17.32C53.3242 17.32 55.1042 16.72 56.7042 15.28L55.7042 12.62C54.5842 13.64 53.5442 14.14 52.1442 14.14C50.7042 14.14 50.0642 13.5 50.0642 12.26V9.56H56.3642V6.68H50.0642V3.08L45.3442 3.92V6.68H42.4642V9.56H45.3442L45.3642 13.32C45.3642 15.8 47.4242 17.32 50.7842 17.32ZM65.3545 17.32C67.8945 17.32 69.6745 16.72 71.2745 15.28L70.2745 12.62C69.1545 13.64 68.1145 14.14 66.7145 14.14C65.2745 14.14 64.6345 13.5 64.6345 12.26V9.56H70.9345V6.68H64.6345V3.08L59.9145 3.92V6.68H57.0345V9.56H59.9145L59.9345 13.32C59.9345 15.8 61.9945 17.32 65.3545 17.32ZM80.1648 5L80.6048 4.34L76.4648 1.6L76.0048 2.26L80.1648 5ZM80.8448 17.32C83.6048 17.32 86.2448 16.7 87.6448 15.8L86.3448 13.56C85.2848 14.16 83.2248 14.6 81.1848 14.6C79.2448 14.6 77.4448 14.12 76.9048 12.92H87.7048C87.8048 12.58 87.8448 12.14 87.8448 11.84C87.8448 8.52 84.7448 6.34 80.0448 6.34C75.2648 6.34 71.9248 8.6 71.9248 11.82C71.9248 15.18 75.5248 17.32 80.8448 17.32ZM76.8248 10.9C77.0048 9.74 78.3048 8.92 80.0048 8.92C81.6648 8.92 83.0248 9.72 83.0848 10.9H76.8248ZM97.197 17.32C102.217 17.32 105.497 15.16 105.497 11.84C105.497 8.52 102.217 6.34 97.197 6.34C92.197 6.34 88.917 8.52 88.917 11.84C88.917 15.16 92.197 17.32 97.197 17.32ZM97.197 14.56C95.037 14.56 93.637 13.48 93.637 11.84C93.637 10.2 95.037 9.12 97.197 9.12C99.357 9.12 100.757 10.2 100.757 11.84C100.757 13.48 99.357 14.56 97.197 14.56ZM120.486 17.36C123.446 17.36 126.126 16.3 127.506 14.66H127.526L127.726 17H131.846V8.74H119.126V11.38H126.806C126.626 12.88 124.626 13.96 122.026 13.96C118.686 13.96 116.446 12.36 116.446 9.98C116.446 7.52 118.446 5.86 121.366 5.86C123.266 5.86 124.886 6.66 125.286 7.82L130.146 6.98C129.546 4.2 125.966 2.32 121.386 2.32C115.306 2.32 111.226 5.46 111.226 10.14C111.226 14.44 114.946 17.36 120.486 17.36ZM138.139 17.32C140.979 17.32 143.239 16.34 144.259 14.76H144.279L144.919 17H149.019V10.32C149.019 7.78 146.019 6.34 141.479 6.34C138.219 6.34 134.979 7.22 132.979 8.58L134.219 11.04C136.179 9.78 138.979 8.98 141.479 8.98C143.219 8.98 144.359 9.36 144.359 9.86C144.359 10.06 144.099 10.22 143.659 10.26L139.719 10.62C135.439 11.02 132.939 12.42 132.939 14.48C132.939 16.28 134.859 17.32 138.139 17.32ZM139.819 14.52C138.419 14.52 137.679 14.22 137.679 13.7C137.679 13.16 138.499 12.86 140.039 12.74L144.279 12.36V12.4C144.279 13.66 142.499 14.52 139.819 14.52ZM155.608 17.34C158.188 17.34 160.148 16.22 161.108 14.5H161.128L161.628 17H165.708V6.68H160.988V11.52C160.988 13.48 159.768 14.64 157.768 14.64C156.008 14.64 154.988 13.66 154.988 12.02V6.68H150.288L150.268 12.52C150.248 15.5 152.328 17.34 155.608 17.34ZM174.983 17.32C177.523 17.32 179.303 16.72 180.903 15.28L179.903 12.62C178.783 13.64 177.743 14.14 176.343 14.14C174.903 14.14 174.263 13.5 174.263 12.26V9.56H180.563V6.68H174.263V3.08L169.543 3.92V6.68H166.663V9.56H169.543L169.563 13.32C169.563 15.8 171.623 17.32 174.983 17.32ZM181.894 17H186.614V12.16C186.614 10.2 187.834 9.04 189.834 9.04C191.594 9.04 192.614 10.02 192.614 11.66V17H197.314L197.334 11.16C197.354 8.18 195.274 6.34 191.994 6.34C189.414 6.34 187.634 7.46 186.654 9.18H186.634V2.08H181.894V17ZM201.189 5.58C202.709 5.58 203.809 4.62 203.809 3.26C203.809 1.9 202.709 0.959999 201.189 0.959999C199.669 0.959999 198.569 1.9 198.569 3.26C198.569 4.62 199.669 5.58 201.189 5.58ZM198.829 17H203.549V6.68H198.829V17ZM213.814 17.32C216.574 17.32 219.214 16.7 220.614 15.8L219.314 13.56C218.254 14.16 216.194 14.6 214.154 14.6C212.214 14.6 210.414 14.12 209.874 12.92H220.674C220.774 12.58 220.814 12.14 220.814 11.84C220.814 8.52 217.714 6.34 213.014 6.34C208.234 6.34 204.894 8.6 204.894 11.82C204.894 15.18 208.494 17.32 213.814 17.32ZM209.794 10.9C209.974 9.74 211.274 8.92 212.974 8.92C214.634 8.92 215.994 9.72 216.054 10.9H209.794ZM231.126 6.34C229.266 6.34 227.586 7.38 226.826 9.06H226.806L226.166 6.68H222.226V17H226.966V12.4C226.966 10.44 227.766 9.2 229.106 9.2C230.086 9.2 230.766 10.18 230.846 11.72L235.166 10.88C235.006 8.12 233.426 6.34 231.126 6.34ZM6.416 24.632C4.032 24.632 2.224 25.624 1.552 27.288H1.536L1.456 24.952H0.64V33H1.52V29.752C1.52 27.064 3.296 25.464 6.304 25.464C8.672 25.464 10.08 26.648 10.08 28.664V33H10.96V28.584C10.96 26.104 9.264 24.632 6.416 24.632ZM17.8356 33.32C21.3716 33.32 23.6756 31.608 23.6756 28.984C23.6756 26.36 21.3716 24.632 17.8356 24.632C14.3156 24.632 11.9956 26.36 11.9956 28.984C11.9956 31.608 14.3156 33.32 17.8356 33.32ZM17.8356 32.504C14.8436 32.504 12.8756 31.112 12.8756 28.984C12.8756 26.856 14.8436 25.464 17.8356 25.464C20.8276 25.464 22.7956 26.856 22.7956 28.984C22.7956 31.112 20.8276 32.504 17.8356 32.504ZM28.0236 33H28.9836L34.0076 24.952H32.9996L28.5196 32.2H28.5036L24.0396 24.952H23.0156L28.0236 33ZM35.216 23.304C35.648 23.304 35.936 23.016 35.936 22.6C35.936 22.184 35.648 21.896 35.216 21.896C34.8 21.896 34.512 22.184 34.512 22.6C34.512 23.016 34.8 23.304 35.216 23.304ZM34.784 33H35.664V24.952H34.784V33ZM42.5491 33.32C45.3651 33.32 47.8291 31.944 48.5971 29.976L47.7491 29.672C47.1571 31.352 45.0451 32.536 42.6451 32.536C39.8931 32.536 37.7971 31.08 37.8131 28.984C37.8131 26.888 39.7331 25.432 42.4371 25.432C44.4371 25.432 46.0531 26.28 46.5971 27.576L47.4131 27.272C46.7571 25.688 44.7731 24.632 42.3571 24.632C39.1891 24.632 36.9331 26.408 36.9331 28.984C36.9331 31.544 39.3171 33.32 42.5491 33.32ZM55.5139 33.32C57.9139 33.32 60.2979 32.472 61.3539 31.304L60.8099 30.664C59.8979 31.704 57.7699 32.472 55.5939 32.472C52.7459 32.472 50.5379 31.16 50.3939 29.336H60.5219C60.5379 29.224 60.5379 29.048 60.5379 28.936C60.5379 26.44 58.2339 24.632 55.0339 24.632C51.7379 24.632 49.4019 26.44 49.4019 28.936C49.4019 31.48 51.9619 33.32 55.5139 33.32ZM50.3779 28.52C50.5379 26.76 52.4739 25.496 55.0019 25.496C57.4979 25.496 59.4339 26.712 59.5939 28.52H50.3779ZM71.8386 33H73.0066L76.8626 25.736H76.8786L80.7986 33H81.9666L86.2866 24.952H85.3266L81.3746 32.2H81.3586L77.4706 24.952H76.2866L72.4466 32.184H72.4306L68.3986 24.952H67.4226L71.8386 33ZM92.0764 33.32C94.4764 33.32 96.8604 32.472 97.9164 31.304L97.3724 30.664C96.4604 31.704 94.3324 32.472 92.1564 32.472C89.3084 32.472 87.1004 31.16 86.9564 29.336H97.0844C97.1004 29.224 97.1004 29.048 97.1004 28.936C97.1004 26.44 94.7964 24.632 91.5964 24.632C88.3004 24.632 85.9644 26.44 85.9644 28.936C85.9644 31.48 88.5244 33.32 92.0764 33.32ZM86.9404 28.52C87.1004 26.76 89.0364 25.496 91.5644 25.496C94.0604 25.496 95.9964 26.712 96.1564 28.52H86.9404ZM104.825 33.32C108.249 33.32 110.617 31.544 110.617 28.984C110.617 26.408 108.249 24.632 104.841 24.632C102.489 24.632 100.585 25.576 99.8485 27.016H99.8325V21.272H98.9525V33H99.7525L99.8165 30.936H99.8325C100.553 32.376 102.473 33.32 104.825 33.32ZM104.777 32.504C101.849 32.504 99.8165 31.048 99.8165 28.984C99.8165 26.904 101.849 25.464 104.777 25.464C107.689 25.464 109.737 26.904 109.737 28.984C109.737 31.048 107.689 32.504 104.777 32.504ZM123.006 33.32C125.358 33.32 127.278 32.376 127.998 30.936H128.014L128.078 33H128.878V21.272H127.998V27.016H127.982C127.246 25.576 125.342 24.632 122.99 24.632C119.582 24.632 117.214 26.408 117.214 28.984C117.214 31.544 119.582 33.32 123.006 33.32ZM123.054 32.504C120.142 32.504 118.094 31.048 118.094 28.984C118.094 26.904 120.142 25.464 123.054 25.464C125.982 25.464 128.014 26.904 128.014 28.984C128.014 31.048 125.982 32.504 123.054 32.504ZM136.108 33.32C138.508 33.32 140.892 32.472 141.948 31.304L141.404 30.664C140.492 31.704 138.364 32.472 136.188 32.472C133.34 32.472 131.132 31.16 130.988 29.336H141.116C141.132 29.224 141.132 29.048 141.132 28.936C141.132 26.44 138.828 24.632 135.628 24.632C132.332 24.632 129.996 26.44 129.996 28.936C129.996 31.48 132.556 33.32 136.108 33.32ZM130.972 28.52C131.132 26.76 133.068 25.496 135.596 25.496C138.092 25.496 140.028 26.712 140.188 28.52H130.972ZM146.211 33H147.171L152.195 24.952H151.187L146.707 32.2H146.691L142.227 24.952H141.203L146.211 33ZM157.826 33.32C160.226 33.32 162.61 32.472 163.666 31.304L163.122 30.664C162.21 31.704 160.082 32.472 157.906 32.472C155.058 32.472 152.85 31.16 152.706 29.336H162.834C162.85 29.224 162.85 29.048 162.85 28.936C162.85 26.44 160.546 24.632 157.346 24.632C154.05 24.632 151.714 26.44 151.714 28.936C151.714 31.48 154.274 33.32 157.826 33.32ZM152.69 28.52C152.85 26.76 154.786 25.496 157.314 25.496C159.81 25.496 161.746 26.712 161.906 28.52H152.69ZM164.703 33H165.583V21.272H164.703V33ZM172.539 33.32C176.075 33.32 178.379 31.608 178.379 28.984C178.379 26.36 176.075 24.632 172.539 24.632C169.019 24.632 166.699 26.36 166.699 28.984C166.699 31.608 169.019 33.32 172.539 33.32ZM172.539 32.504C169.547 32.504 167.579 31.112 167.579 28.984C167.579 26.856 169.547 25.464 172.539 25.464C175.531 25.464 177.499 26.856 177.499 28.984C177.499 31.112 175.531 32.504 172.539 32.504ZM179.499 36.36H180.379V30.936H180.395C181.131 32.376 183.035 33.32 185.387 33.32C188.795 33.32 191.163 31.544 191.163 28.984C191.163 26.408 188.795 24.632 185.371 24.632C183.019 24.632 181.099 25.576 180.379 27.032H180.363L180.299 24.952H179.499V36.36ZM185.323 32.504C182.395 32.504 180.363 31.048 180.363 28.984C180.363 26.904 182.395 25.464 185.323 25.464C188.235 25.464 190.283 26.904 190.283 28.984C190.283 31.048 188.235 32.504 185.323 32.504ZM198.233 33.32C200.633 33.32 203.017 32.472 204.073 31.304L203.529 30.664C202.617 31.704 200.489 32.472 198.313 32.472C195.465 32.472 193.257 31.16 193.113 29.336H203.241C203.257 29.224 203.257 29.048 203.257 28.936C203.257 26.44 200.953 24.632 197.753 24.632C194.457 24.632 192.121 26.44 192.121 28.936C192.121 31.48 194.681 33.32 198.233 33.32ZM193.097 28.52C193.257 26.76 195.193 25.496 197.721 25.496C200.217 25.496 202.153 26.712 202.313 28.52H193.097ZM209.445 24.632C207.877 24.632 206.597 25.448 205.989 26.856H205.973L205.925 24.952H205.109V33H205.989V29.336C205.989 27.016 207.317 25.464 209.365 25.464C210.693 25.464 211.669 26.184 211.781 27.64L212.581 27.384C212.389 25.576 211.157 24.632 209.445 24.632Z" fill="url(#paint0_linear)"/>
<defs>
<linearGradient id="paint0_linear" x1="197" y1="62.5" x2="-31" y2="11.9999" gradientUnits="userSpaceOnUse">
<stop stop-opacity="0"/>
<stop offset="1" stop-color="#001345"/>
</linearGradient>
</defs>
</svg>
