<svg width="438" height="55" viewBox="0 0 438 55" fill="none" xmlns="http://www.w3.org/2000/svg">
<path d="M7.60794 34H438L430.392 42H0L7.60794 34Z" fill="#63B3ED"/>
<path d="M10.4447 38H12.9227V11.078H13.0067L28.6307 38H31.4867L47.1527 11.078H47.2367V38H49.7147V8.474H45.8927L30.1007 35.606H30.0587L14.2667 8.474H10.4447V38ZM63.7913 38.84C70.2593 38.84 76.1393 36.488 78.1133 33.17H78.1553L78.3233 38H80.4653V23.888C80.4653 18.974 74.8793 16.034 67.9913 16.034C61.7333 16.034 55.5593 18.512 53.3753 21.788L54.8873 23.258C56.7773 20.318 62.4053 18.218 68.0333 18.218C73.9973 18.218 78.1973 20.612 78.1973 23.678C78.1973 24.56 77.6933 25.022 76.7273 25.106L65.1353 26.03C56.1893 26.702 52.6613 29.18 52.6613 32.834C52.6613 36.866 56.6513 38.84 63.7913 38.84ZM63.8753 36.782C57.9533 36.782 54.9713 35.396 54.9713 32.708C54.9713 30.23 58.0373 28.592 65.0513 28.046L78.1553 27.038V28.55C78.1553 33.296 72.1073 36.782 63.8753 36.782ZM97.8028 38.84C101.793 38.84 105.405 36.446 106.665 32.96L104.649 31.91C103.725 34.808 100.911 36.74 97.8448 36.74C94.1068 36.74 92.0488 34.64 92.0908 30.818V18.932H106.161V16.874H92.0908V9.524L89.7388 10.112V16.874H81.9268V18.932H89.7808V30.902C89.7388 36.026 92.5948 38.84 97.8028 38.84ZM124.463 38.84C128.453 38.84 132.065 36.446 133.325 32.96L131.309 31.91C130.385 34.808 127.571 36.74 124.505 36.74C120.767 36.74 118.709 34.64 118.751 30.818V18.932H132.821V16.874H118.751V9.524L116.399 10.112V16.874H108.587V18.932H116.441V30.902C116.399 36.026 119.255 38.84 124.463 38.84ZM150.846 13.052L151.602 11.834L143.076 6.122L142.236 7.34L150.846 13.052ZM151.854 38.84C158.154 38.84 164.412 36.614 167.184 33.548L165.756 31.868C163.362 34.598 157.776 36.614 152.064 36.614C144.588 36.614 138.792 33.17 138.414 28.382H165C165.042 28.088 165.042 27.626 165.042 27.332C165.042 20.78 158.994 16.034 150.594 16.034C141.942 16.034 135.81 20.78 135.81 27.332C135.81 34.01 142.53 38.84 151.854 38.84ZM138.372 26.24C138.792 21.62 143.874 18.302 150.51 18.302C157.062 18.302 162.144 21.494 162.564 26.24H138.372ZM184.814 38.84C194.096 38.84 200.144 34.346 200.144 27.458C200.144 20.57 194.096 16.034 184.814 16.034C175.574 16.034 169.484 20.57 169.484 27.458C169.484 34.346 175.574 38.84 184.814 38.84ZM184.814 36.698C176.96 36.698 171.794 33.044 171.794 27.458C171.794 21.872 176.96 18.218 184.814 18.218C192.668 18.218 197.834 21.872 197.834 27.458C197.834 33.044 192.668 36.698 184.814 36.698ZM237.758 39.05C245.822 39.05 252.038 35.69 254.936 30.398H254.978L255.23 38H257.414V21.83H230.03V24.014H255.02C255.02 31.406 247.67 36.824 238.01 36.824C227.804 36.824 220.37 31.112 220.37 23.258C220.37 15.32 227.258 9.65 236.792 9.692C243.218 9.692 249.14 12.8 250.61 17.126L252.92 16.454C251.24 11.204 244.268 7.424 236.75 7.424C225.788 7.424 217.892 14.06 217.892 23.258C217.892 32.414 226.208 39.05 237.758 39.05ZM270.838 38.84C277.306 38.84 283.186 36.488 285.16 33.17H285.202L285.37 38H287.512V23.888C287.512 18.974 281.926 16.034 275.038 16.034C268.78 16.034 262.606 18.512 260.422 21.788L261.934 23.258C263.824 20.318 269.452 18.218 275.08 18.218C281.044 18.218 285.244 20.612 285.244 23.678C285.244 24.56 284.74 25.022 283.774 25.106L272.182 26.03C263.236 26.702 259.708 29.18 259.708 32.834C259.708 36.866 263.698 38.84 270.838 38.84ZM270.922 36.782C265 36.782 262.018 35.396 262.018 32.708C262.018 30.23 265.084 28.592 272.098 28.046L285.202 27.038V28.55C285.202 33.296 279.154 36.782 270.922 36.782ZM302.372 38.84C308.63 38.84 313.376 36.236 315.14 31.868H315.182L315.392 38H317.534V16.874H315.224V25.4C315.224 32.456 310.562 36.656 302.666 36.656C296.45 36.656 292.754 33.548 292.754 28.256V16.874H290.444V28.466C290.444 34.976 294.896 38.84 302.372 38.84ZM335.078 38.84C339.068 38.84 342.68 36.446 343.94 32.96L341.924 31.91C341 34.808 338.186 36.74 335.12 36.74C331.382 36.74 329.324 34.64 329.366 30.818V18.932H343.436V16.874H329.366V9.524L327.014 10.112V16.874H319.202V18.932H327.056V30.902C327.014 36.026 329.87 38.84 335.078 38.84ZM346.845 38H349.155V29.474C349.155 22.418 353.817 18.218 361.713 18.218C367.929 18.218 371.625 21.326 371.625 26.618V38H373.935V26.408C373.935 19.898 369.483 16.034 362.007 16.034C355.749 16.034 351.003 18.638 349.239 23.006H349.197V7.214H346.845V38ZM378.586 12.548C379.72 12.548 380.476 11.792 380.476 10.7C380.476 9.608 379.72 8.852 378.586 8.852C377.494 8.852 376.738 9.608 376.738 10.7C376.738 11.792 377.494 12.548 378.586 12.548ZM377.452 38H379.762V16.874H377.452V38ZM399.137 38.84C405.437 38.84 411.695 36.614 414.467 33.548L413.039 31.868C410.645 34.598 405.059 36.614 399.347 36.614C391.871 36.614 386.075 33.17 385.697 28.382H412.283C412.325 28.088 412.325 27.626 412.325 27.332C412.325 20.78 406.277 16.034 397.877 16.034C389.225 16.034 383.093 20.78 383.093 27.332C383.093 34.01 389.813 38.84 399.137 38.84ZM385.655 26.24C386.075 21.62 391.157 18.302 397.793 18.302C404.345 18.302 409.427 21.494 409.847 26.24H385.655ZM428.569 16.034C424.453 16.034 421.093 18.176 419.497 21.872H419.455L419.329 16.874H417.187V38H419.497V28.382C419.497 22.292 422.983 18.218 428.359 18.218C431.845 18.218 434.407 20.108 434.701 23.93L436.801 23.258C436.297 18.512 433.063 16.034 428.569 16.034Z" fill="black"/>
</svg>
