<svg width="48" height="48" viewBox="0 0 48 48" fill="none" xmlns="http://www.w3.org/2000/svg">
<path d="M40.74 46.98H7.26002C3.82802 46.98 1.02002 44.172 1.02002 40.74V7.25999C1.02002 3.82799 3.82802 1.01999 7.26002 1.01999H40.74C44.172 1.01999 46.98 3.82799 46.98 7.25999V40.74C46.98 44.172 44.172 46.98 40.74 46.98Z" fill="#353535"/>
<path d="M19.1999 38.4C21.8519 38.4 23.9999 36.252 23.9999 33.6V28.8H19.1999C16.5479 28.8 14.3999 30.948 14.3999 33.6C14.3999 36.252 16.5479 38.4 19.1999 38.4Z" fill="#0ACF83"/>
<path d="M14.3999 23.9999C14.3999 21.3479 16.5479 19.2 19.1999 19.2H23.9999V28.7999H19.1999C16.5479 28.7999 14.3999 26.6519 14.3999 23.9999Z" fill="#A259FF"/>
<path d="M14.3999 14.4C14.3999 11.748 16.5479 9.59998 19.1999 9.59998H23.9999V19.2H19.1999C16.5479 19.2 14.3999 17.052 14.3999 14.4Z" fill="#F24E1E"/>
<path d="M24 9.59998H28.8C31.452 9.59998 33.6 11.748 33.6 14.4C33.6 17.052 31.452 19.2 28.8 19.2H24V9.59998Z" fill="#FF7262"/>
<path d="M33.6 23.9999C33.6 26.6519 31.452 28.7999 28.8 28.7999C26.148 28.7999 24 26.6519 24 23.9999C24 21.3479 26.148 19.2 28.8 19.2C31.452 19.2 33.6 21.3479 33.6 23.9999Z" fill="#1ABCFE"/>
</svg>
