<svg width="48" height="48" viewBox="0 0 48 48" fill="none" xmlns="http://www.w3.org/2000/svg">
<path d="M24.0001 4.20764C12.9067 4.20764 3.92188 13.1949 3.92188 24.2915C3.92188 33.73 10.3965 41.5635 19.1318 43.7719C19.031 43.5206 18.9814 43.1685 18.9814 42.8181V39.403H16.4712C15.1161 39.403 13.8602 38.8014 13.3082 37.6955C12.6555 36.4904 12.5547 34.6325 10.8988 33.477C10.3965 33.0753 10.798 32.6737 11.35 32.7232C12.4043 33.0241 13.257 33.7283 14.0601 34.7812C14.8632 35.8358 15.2152 36.0871 16.7207 36.0871C17.423 36.0871 18.5269 36.0375 19.5316 35.8854C20.0836 34.4786 21.0371 33.2241 22.1922 32.6224C15.4664 31.819 12.2539 28.5048 12.2539 23.9855C12.2539 22.0267 13.1066 20.1687 14.5129 18.562C14.0618 17.0049 13.4586 13.7915 14.7146 12.5369C17.7272 12.5369 19.5333 14.4957 19.9845 14.9965C21.4899 14.494 23.1474 14.1931 24.8528 14.1931C26.6094 14.1931 28.2157 14.494 29.7211 14.9965C30.1722 14.494 31.9801 12.5369 34.991 12.5369C36.1957 13.7419 35.6438 17.0049 35.1414 18.562C36.5477 20.1192 37.3509 22.0267 37.3509 23.9855C37.3509 28.5048 34.1879 31.819 27.5134 32.5215C29.3708 33.4753 30.6763 36.1862 30.6763 38.1946V42.7686C30.6763 42.919 30.6268 43.0694 30.6268 43.2198C38.4564 40.5089 44.0784 33.0788 44.0784 24.2915C44.0784 13.1949 35.0936 4.20764 24.0001 4.20764Z" fill="#1B1B1B"/>
</svg>
