<svg width="48" height="48" viewBox="0 0 48 48" fill="none" xmlns="http://www.w3.org/2000/svg">
<path d="M0 0H48V48H0V0Z" fill="#F7DF1E"/>
<path d="M12.6208 40.1123L16.2939 37.8892C17.0027 39.1457 17.6473 40.2088 19.1936 40.2088C20.6758 40.2088 21.6105 39.6291 21.6105 37.3738V22.0367H26.1212V37.4376C26.1212 42.1095 23.3825 44.2361 19.3869 44.2361C15.7785 44.2361 13.6839 42.3673 12.6206 40.1119L12.6208 40.1123ZM28.5712 39.6289L32.244 37.5024C33.2109 39.0814 34.4675 40.2412 36.6905 40.2412C38.5597 40.2412 39.7515 39.3067 39.7515 38.0179C39.7515 36.4714 38.5271 35.9235 36.465 35.0216L35.3375 34.5379C32.0831 33.1528 29.9244 31.4128 29.9244 27.7397C29.9244 24.3564 32.502 21.7787 36.5297 21.7787C39.3973 21.7787 41.4594 22.7777 42.9414 25.3875L39.4292 27.6431C38.6557 26.2577 37.8184 25.71 36.5295 25.71C35.2084 25.71 34.3706 26.5477 34.3706 27.6431C34.3706 28.9963 35.2084 29.5444 37.1415 30.3821L38.2691 30.8653C42.1035 32.5087 44.2622 34.1841 44.2622 37.9536C44.2622 42.0137 41.0724 44.2367 36.7871 44.2367C32.5985 44.2367 29.892 42.2391 28.571 39.6291" fill="#1B1B1B"/>
</svg>
