<svg width="48" height="48" viewBox="0 0 48 48" fill="none" xmlns="http://www.w3.org/2000/svg">
<path d="M27.3505 16.0141L25.7078 18.9063L20.09 9.01267L2.84439 39.3805H14.5208C14.5208 40.9778 15.7943 42.2726 17.3653 42.2726H2.84439C1.82826 42.2726 0.889413 41.7211 0.381435 40.8263C-0.126543 39.9315 -0.126491 38.8291 0.381572 37.9344L17.6272 7.56659C18.1353 6.6717 19.0744 6.12042 20.0906 6.12042C21.1069 6.12042 22.0459 6.6717 22.554 7.56659L27.3505 16.0141V16.0141Z" fill="#00C58E"/>
<path d="M39.7997 37.9343L28.9932 18.9063L27.3506 16.0141L25.7079 18.9063L14.9026 37.9343C14.3945 38.8291 14.3945 39.9314 14.9024 40.8263C15.4104 41.7211 16.3493 42.2726 17.3654 42.2726H37.3334C38.3497 42.2726 39.2889 41.7217 39.7972 40.8268C40.3055 39.9319 40.3055 38.8293 39.7974 37.9343H39.7997ZM17.3654 39.3804L27.3506 21.7984L37.3334 39.3804H17.3654H17.3654Z" fill="#2F495E"/>
<path d="M47.526 40.8265C47.018 41.7212 46.0792 42.2726 45.0632 42.2726H37.3334C38.9043 42.2726 40.1778 40.9778 40.1778 39.3805H45.0572L31.2119 14.9983L28.9932 18.9063L27.3506 16.0141L28.7491 13.5522C29.2572 12.6573 30.1963 12.106 31.2125 12.106C32.2288 12.106 33.1678 12.6573 33.6759 13.5522L47.526 37.9344C48.0341 38.8292 48.0341 39.9317 47.526 40.8265Z" fill="#108775"/>
</svg>
