<svg width="48" height="48" viewBox="0 0 48 48" fill="none" xmlns="http://www.w3.org/2000/svg">
<g clip-path="url(#clip0)">
<path d="M1.99658 2.59204H45.9967V45.3922H1.99658V2.59204Z" fill="url(#paint0_radial)"/>
<path d="M1.99998 2.59519H46.0001V45.3953H1.99998V2.59519ZM0 47.3954H48.0001V0.595215H0V47.3954ZM32.3601 19.7952C30.78 19.7952 30.2401 20.5952 30.2401 21.2552C30.2401 21.9752 30.6001 22.4752 32.7201 23.5752C35.8601 25.0953 36.8401 26.5552 36.8401 28.6953C36.8401 31.8953 34.4001 33.6153 31.1001 33.6153C29.3601 33.6153 27.86 33.2552 27 32.7553C26.8601 32.6953 26.8401 32.5953 26.8401 32.4353V29.4952C26.8401 29.2953 26.9401 29.2352 27.0801 29.3353C28.3401 30.1553 29.7801 30.5153 31.1001 30.5153C32.6801 30.5153 33.3401 29.8553 33.3401 28.9552C33.3401 28.2353 32.8801 27.5953 30.86 26.5552C28.02 25.1953 26.8401 23.8153 26.8401 21.5153C26.8401 18.9352 28.8601 16.7952 32.3601 16.7952C34.0801 16.7952 35.2801 17.0553 35.9401 17.3552C36.1 17.4552 36.14 17.6152 36.14 17.7552V20.4952C36.14 20.6551 36.0401 20.7552 35.84 20.6951C34.96 20.1353 33.66 19.7952 32.3601 19.7952ZM15.16 22.1753C15.62 22.2152 15.9801 22.2152 16.78 22.2152C19.1201 22.2152 21.3201 21.3953 21.3201 18.2153C21.3201 15.6753 19.74 14.3952 17.0801 14.3952C16.2801 14.3952 15.52 14.4352 15.16 14.4552V22.1753ZM11.6001 11.5552C11.6001 11.4152 11.8801 11.3152 12.04 11.3152C13.3201 11.2552 15.2201 11.2152 17.2001 11.2152C22.74 11.2152 24.9 14.2552 24.9 18.1352C24.9 23.2152 21.22 25.3952 16.7 25.3952C15.9401 25.3952 15.6801 25.3552 15.14 25.3552V33.0353C15.14 33.1952 15.08 33.2752 14.9 33.2752H11.84C11.6801 33.2752 11.6 33.2152 11.6 33.0353V11.5552H11.6001Z" fill="#31C5F0"/>
</g>
<defs>
<radialGradient id="paint0_radial" cx="0" cy="0" r="1" gradientUnits="userSpaceOnUse" gradientTransform="translate(16.4881 12.1836) scale(33.4401 32.3761)">
<stop stop-color="#34364E" stop-opacity="0.98"/>
<stop offset="1" stop-color="#0C0824"/>
</radialGradient>
<clipPath id="clip0">
<rect width="48" height="48" fill="white"/>
</clipPath>
</defs>
</svg>
