<svg width="48" height="48" viewBox="0 0 48 48" fill="none" xmlns="http://www.w3.org/2000/svg">
<g clip-path="url(#clip0)">
<path d="M1.99658 2.59198H45.9967V45.3921H1.99658V2.59198Z" fill="url(#paint0_radial)"/>
<path d="M1.99998 2.59519H46.0001V45.3953H1.99998V2.59519ZM0 47.3954H48.0001V0.595215H0V47.3954ZM28.8 20.3553C28.8 20.1152 28.8 19.5353 28.7001 18.4152C28.7001 18.2552 28.7201 18.2152 28.86 18.1552C30.08 17.6552 32.9401 16.7752 36.18 16.7752C36.34 16.7752 36.42 16.8152 36.42 16.9752V19.8752C36.42 20.0352 36.36 20.0752 36.2 20.0752C34.94 20.0152 33.12 20.1752 32.42 20.4752V33.0753C32.42 33.2352 32.36 33.3152 32.1799 33.3152H29.04C28.88 33.3152 28.8 33.2552 28.8 33.0753V20.3553H28.8ZM16.0001 22.1753C16.46 22.2152 16.82 22.2152 17.6201 22.2152C19.9601 22.2152 22.1601 21.3953 22.1601 18.2153C22.1601 15.6753 20.6001 14.3952 17.92 14.3952C17.1201 14.3952 16.3601 14.4352 16.0001 14.4552V22.1753ZM12.46 11.5552C12.46 11.4152 12.5 11.3152 12.66 11.3152C13.94 11.2552 15.82 11.2152 17.8001 11.2152C23.34 11.2152 25.76 14.2552 25.76 18.1552C25.76 23.2352 22.0801 25.4152 17.5601 25.4152C16.8 25.4152 16.5401 25.3752 16.0001 25.3752V33.0553C16.0001 33.2152 15.9401 33.2952 15.76 33.2952H12.68C12.52 33.2952 12.44 33.2352 12.44 33.0553V11.5552H12.46Z" fill="#E579FF"/>
</g>
<defs>
<radialGradient id="paint0_radial" cx="0" cy="0" r="1" gradientUnits="userSpaceOnUse" gradientTransform="translate(16.4881 12.1835) scale(33.4401 32.3761)">
<stop stop-color="#4B2D4F" stop-opacity="0.98"/>
<stop offset="1" stop-color="#180024"/>
</radialGradient>
<clipPath id="clip0">
<rect width="48" height="48" fill="white"/>
</clipPath>
</defs>
</svg>
