<svg width="48" height="48" viewBox="0 0 48 48" fill="none" xmlns="http://www.w3.org/2000/svg">
<path d="M46.5 10.2656C44.812 10.9991 43.026 11.4823 41.1984 11.7C43.1191 10.5754 44.5634 8.78867 45.2606 6.67502C43.4448 7.73682 41.4615 8.48183 39.3956 8.87814C38.5257 7.96645 37.4795 7.24118 36.3206 6.7464C35.1616 6.25163 33.9142 5.99769 32.6541 6.00002C27.5522 6.00002 23.4234 10.0688 23.4234 15.0844C23.4198 15.782 23.4998 16.4776 23.6616 17.1563C20.0031 16.9848 16.4208 16.0515 13.1437 14.4162C9.86666 12.7809 6.96702 10.4795 4.63031 7.65939C3.81054 9.04138 3.377 10.6182 3.375 12.225C3.375 15.375 5.01844 18.1594 7.5 19.7906C6.02974 19.7557 4.58962 19.3666 3.30188 18.6563V18.7688C3.30188 23.175 6.48938 26.8406 10.7081 27.675C9.9148 27.8865 9.09728 27.9937 8.27625 27.9938C7.69367 27.9948 7.11241 27.9383 6.54094 27.825C7.71375 31.4344 11.1272 34.0594 15.1706 34.1344C11.885 36.6665 7.8512 38.0351 3.70312 38.025C2.96683 38.0239 2.23122 37.9801 1.5 37.8938C5.71986 40.5883 10.6251 42.0136 15.6319 42C32.6344 42 41.9231 28.1531 41.9231 16.1438C41.9231 15.75 41.9128 15.3563 41.8941 14.9719C43.697 13.6894 45.2567 12.0957 46.5 10.2656V10.2656Z" fill="black"/>
</svg>
