<svg width="409" height="85" viewBox="0 0 409 85" fill="none" xmlns="http://www.w3.org/2000/svg">
<g filter="url(#filter0_d)">
<rect x="4" y="3" width="401" height="77" rx="1" fill="#105F4C"/>
<path d="M54.1875 57.209V58H66.7852V57.209H62.3906V28.791H66.3848C71.0625 28.791 71.9316 31.9258 71.9316 37.0039H72.7227V28H48.2402V37.0039H49.0312C49.0312 31.9258 49.9004 28.791 54.5781 28.791H58.582V57.209H54.1875ZM75.418 57.209V58H84.2266V57.209H81.6191V49.0254C81.6191 45.7734 83.9238 40.1387 87.4883 40.1387C89.6758 40.1387 90.2129 42.4629 90.2129 45.8223V57.209H87.625V58H96.3359V57.209H93.7285V45.2363C93.7285 41.7598 92.7227 39.2012 88.1426 39.2012C84.5195 39.2012 82.5176 42.1699 81.6191 45.1777V28H75.418V28.791H78.0254V57.209H75.418ZM116.287 52.7754H115.389C114.393 55.5391 112.146 57.541 108.562 57.541C104.402 57.541 103.367 53.3613 103.367 48.8008C103.367 48.3516 103.377 47.9023 103.396 47.4629H115.994C115.994 43.1074 113.904 39.2012 108.094 39.2012C102.957 39.2012 99.2656 42.8047 99.2656 48.8008C99.2656 54.7969 103.24 58.4004 108.328 58.4004C112.664 58.4004 115.252 55.998 116.287 52.7754ZM108.094 39.9922C111.453 39.9922 111.756 43.9961 111.756 46.6621H103.445C103.729 42.9902 104.881 39.9922 108.094 39.9922ZM141.775 58C148.211 58 152.176 55.5977 152.176 49.6016C152.176 45.041 148.514 43 143.807 42.5605C148.445 41.9746 150.975 39.7773 150.975 35.4023C150.975 30.207 147.01 28 140.975 28H129.373V28.791H132.977V57.209H129.373V58H141.775ZM140.975 28.791C144.012 28.791 146.971 31.0469 146.971 35.8027C146.971 40.5586 144.012 42.1992 140.975 42.1992H136.775V28.791H140.975ZM141.375 42.9902C144.812 42.9902 147.771 44.8457 147.771 49.6016C147.771 54.3574 144.812 57.209 141.375 57.209H136.775V42.9902H141.375ZM155.848 57.209V58H166.258V57.209H162.85V28H155.848V28.791H159.256V57.209H155.848ZM169.188 48.8008C169.188 53.9961 172.703 58.4004 178.348 58.4004C183.992 58.4004 187.508 53.9961 187.508 48.8008C187.508 43.6055 183.992 39.2012 178.348 39.2012C172.703 39.2012 169.188 43.6055 169.188 48.8008ZM173.289 48.8008C173.289 45.041 174.041 39.9922 178.348 39.9922C182.654 39.9922 183.406 45.041 183.406 48.8008C183.406 52.5605 182.654 57.6094 178.348 57.6094C174.041 57.6094 173.289 52.5605 173.289 48.8008ZM192.312 55.041C192.312 56.9453 193.719 57.8828 196.004 58.2148C194.08 58.459 191.043 59.748 191.043 63C191.043 66.7988 195.125 68.4004 199.891 68.4004C204.441 68.4004 209.041 66.3789 209.041 61.2812C209.041 55.8418 205.359 55.1973 202.361 55.1973C201.238 55.1973 200.311 55.2363 198.914 55.2363C196.717 55.2363 195.096 55.1973 195.096 53.7617C195.096 52.541 196.805 51.7305 198.377 51.4277C198.65 51.457 198.934 51.4668 199.207 51.4668C202.449 51.4668 206.258 49.8066 206.258 45.4023C206.258 44.0645 205.906 42.9609 205.32 42.082C206.336 40.6172 207.752 40.168 208.816 40.168C209.988 40.168 210.838 40.6855 211.141 41.4277C210.848 41.125 210.398 40.9492 209.803 40.9492C208.943 40.9492 208.084 41.6133 208.084 42.6289C208.084 43.9473 209.1 44.6309 210.096 44.6309C211.092 44.6309 212.176 44.0742 212.176 42.3262C212.176 40.8027 210.799 39.3965 208.816 39.3965C207.693 39.3965 206.014 39.9238 204.832 41.4473C203.426 39.8848 201.209 39.2012 199.207 39.2012C195.965 39.2012 192.039 40.998 192.039 45.4023C192.039 48.6445 194.168 50.4023 196.59 51.1055C194.256 51.6816 192.312 52.9707 192.312 55.041ZM195.75 45.4023C195.75 42.4434 196.844 39.9922 199.207 39.9922C201.57 39.9922 202.664 42.4434 202.664 45.4023C202.664 48.3613 201.57 50.6758 199.207 50.6758C196.043 50.6758 195.75 48.3613 195.75 45.4023ZM194.646 62.3359C194.646 60.7441 195.32 59.1914 196.922 58.3125C197.352 58.3418 197.811 58.3613 198.289 58.3613H202.645C205.242 58.3613 207.586 59.5137 207.586 62.0723C207.586 65.627 204.393 67.5312 200.467 67.5312C196.521 67.5312 194.646 64.9531 194.646 62.3359ZM224.646 57.209V58H233.455V57.209H229.217L232.215 48.6152H242.771L245.545 57.209H241.453V58H253.055V57.209H249.92L239.598 27.4043H238.797L228.318 57.209H224.646ZM237.693 32.8828L242.518 47.8242H232.488L237.693 32.8828ZM264.422 53.8984L259.217 40.3828H262.576V39.6016H253.016V40.3828H255.252L262.645 58.4004H263.514L270.838 40.3828H273.191V39.6016H266.326V40.3828H269.9L264.422 53.8984ZM293.123 52.7754H292.225C291.229 55.5391 288.982 57.541 285.398 57.541C281.238 57.541 280.203 53.3613 280.203 48.8008C280.203 48.3516 280.213 47.9023 280.232 47.4629H292.83C292.83 43.1074 290.74 39.2012 284.93 39.2012C279.793 39.2012 276.102 42.8047 276.102 48.8008C276.102 54.7969 280.076 58.4004 285.164 58.4004C289.5 58.4004 292.088 55.998 293.123 52.7754ZM284.93 39.9922C288.289 39.9922 288.592 43.9961 288.592 46.6621H280.281C280.564 42.9902 281.717 39.9922 284.93 39.9922ZM295.848 57.209V58H304.656V57.209H302.049V49.0254C302.049 45.7734 304.354 40.1387 307.918 40.1387C310.105 40.1387 310.643 42.4629 310.643 45.8223V57.209H308.055V58H316.766V57.209H314.158V45.2363C314.158 41.7598 313.152 39.2012 308.572 39.2012C304.949 39.2012 302.947 42.1699 302.049 45.1777V39.6016H295.848V40.3926H298.455V57.209H295.848ZM337.107 57.209V39.6016H330.701V40.3926H333.494V48.5762C333.494 51.8281 331.121 57.4629 327.547 57.4629C325.359 57.4629 324.9 55.1289 324.9 51.7695V39.6016H318.699V40.3926H321.307V52.3555C321.307 55.832 322.312 58.4004 326.893 58.4004C330.594 58.4004 332.615 55.3242 333.494 52.2578V58H339.715V57.209H337.107ZM359.881 52.7754H358.982C357.986 55.5391 355.74 57.541 352.156 57.541C347.996 57.541 346.961 53.3613 346.961 48.8008C346.961 48.3516 346.971 47.9023 346.99 47.4629H359.588C359.588 43.1074 357.498 39.2012 351.688 39.2012C346.551 39.2012 342.859 42.8047 342.859 48.8008C342.859 54.7969 346.834 58.4004 351.922 58.4004C356.258 58.4004 358.846 55.998 359.881 52.7754ZM351.688 39.9922C355.047 39.9922 355.35 43.9961 355.35 46.6621H347.039C347.322 42.9902 348.475 39.9922 351.688 39.9922Z" fill="white"/>
<rect x="8.75" y="7.75" width="391.5" height="67.5" stroke="white" stroke-width="1.5"/>
</g>
<defs>
<filter id="filter0_d" x="0" y="0" width="409" height="85" filterUnits="userSpaceOnUse" color-interpolation-filters="sRGB">
<feFlood flood-opacity="0" result="BackgroundImageFix"/>
<feColorMatrix in="SourceAlpha" type="matrix" values="0 0 0 0 0 0 0 0 0 0 0 0 0 0 0 0 0 0 127 0"/>
<feOffset dy="1"/>
<feGaussianBlur stdDeviation="2"/>
<feColorMatrix type="matrix" values="0 0 0 0 0.0627451 0 0 0 0 0.372549 0 0 0 0 0.298039 0 0 0 0.26 0"/>
<feBlend mode="normal" in2="BackgroundImageFix" result="effect1_dropShadow"/>
<feBlend mode="normal" in="SourceGraphic" in2="effect1_dropShadow" result="shape"/>
</filter>
</defs>
</svg>
