<svg width="680" height="118" viewBox="0 0 680 118" fill="none" xmlns="http://www.w3.org/2000/svg">
<g opacity="0.07" filter="url(#filter0_d)">
<path d="M544.43 58.6963L553.726 64.0148L596.089 17.8334L587.07 12.7305L544.43 58.6963Z" fill="#C4C4C4"/>
<path d="M553.726 64.0148L555.298 71.0445L597.394 25.4286L596.089 17.8334L553.726 64.0148Z" fill="#C4C4C4"/>
<path d="M544.43 58.6963L546.048 65.726L555.298 71.0445L553.726 64.0148L544.43 58.6963Z" fill="#C4C4C4"/>
<path d="M544.43 58.6963L546.048 65.726L555.298 71.0445M544.43 58.6963L553.726 64.0148M544.43 58.6963L587.07 12.7305L596.089 17.8334M553.726 64.0148L555.298 71.0445M553.726 64.0148L596.089 17.8334M555.298 71.0445L597.394 25.4286L596.089 17.8334" stroke="white"/>
<path d="M652.013 -0.0804318L652.706 10.6069L714.596 20.4555L713.875 10.1179L652.013 -0.0804318Z" fill="#C4C4C4"/>
<path d="M652.706 10.6069L647.711 15.7971L708.982 25.7351L714.596 20.4555L652.706 10.6069Z" fill="#C4C4C4"/>
<path d="M652.013 -0.0804318L647.043 5.14838L647.711 15.7971L652.706 10.6069L652.013 -0.0804318Z" fill="#C4C4C4"/>
<path d="M652.013 -0.0804318L647.043 5.14838L647.711 15.7971M652.013 -0.0804318L652.706 10.6069M652.013 -0.0804318L713.875 10.1179L714.596 20.4555M652.706 10.6069L647.711 15.7971M652.706 10.6069L714.596 20.4555M647.711 15.7971L708.982 25.7351L714.596 20.4555" stroke="white"/>
<path d="M646.597 149.434L657.307 149.344L670.628 88.1076L660.266 88.2446L646.597 149.434Z" fill="#C4C4C4"/>
<path d="M657.307 149.344L662.207 154.624L675.583 94.0103L670.628 88.1076L657.307 149.344Z" fill="#C4C4C4"/>
<path d="M646.597 149.434L651.538 154.691L662.207 154.624L657.307 149.344L646.597 149.434Z" fill="#C4C4C4"/>
<path d="M646.597 149.434L651.538 154.691L662.207 154.624M646.597 149.434L657.307 149.344M646.597 149.434L660.266 88.2446L670.628 88.1076M657.307 149.344L662.207 154.624M657.307 149.344L670.628 88.1076M662.207 154.624L675.583 94.0103L670.628 88.1076" stroke="white"/>
<path d="M632.909 44.6772L643.004 38.0409L643.093 31.4063L632.786 38.4242L632.909 44.6772Z" fill="#C4C4C4"/>
<path d="M632.786 38.4242L643.093 31.4063L608.286 -19.2754L598.498 -12.825L632.786 38.4242Z" fill="#C4C4C4"/>
<path d="M632.909 44.6772L632.786 38.4242L598.498 -12.825L597.015 -6.67848L632.909 44.6772Z" fill="#C4C4C4"/>
<path d="M632.909 44.6772L643.004 38.0409L643.093 31.4063M632.909 44.6772L632.786 38.4242M632.909 44.6772L597.015 -6.67848L598.498 -12.825M632.786 38.4242L643.093 31.4063M632.786 38.4242L598.498 -12.825M643.093 31.4063L608.286 -19.2754L598.498 -12.825" stroke="white"/>
<path d="M579.994 101.553L572.905 93.623L571.692 99.5007L578.876 108.177L579.994 101.553Z" fill="#C4C4C4"/>
<path d="M578.876 108.177L571.692 99.5007L517.301 134.58L524.857 142.883L578.876 108.177Z" fill="#C4C4C4"/>
<path d="M571.692 99.5007L572.905 93.623L518.98 127.956L517.301 134.58L571.692 99.5007Z" fill="#C4C4C4"/>
<path d="M572.905 93.623L579.994 101.553L578.876 108.177M572.905 93.623L571.692 99.5007M572.905 93.623L518.98 127.956L517.301 134.58M578.876 108.177L571.692 99.5007M578.876 108.177L524.857 142.883L517.301 134.58M571.692 99.5007L517.301 134.58" stroke="white"/>
<path d="M639.991 63.7203L642.473 74.6803L646.607 69.8731L644.42 58.1756L639.991 63.7203Z" fill="#C4C4C4"/>
<path d="M644.42 58.1756L646.607 69.8731L714.832 65.3603L712.11 53.8164L644.42 58.1756Z" fill="#C4C4C4"/>
<path d="M646.607 69.8731L642.473 74.6803L709.885 70.6175L714.832 65.3603L646.607 69.8731Z" fill="#C4C4C4"/>
<path d="M642.473 74.6803L639.991 63.7203L644.42 58.1756M642.473 74.6803L646.607 69.8731M642.473 74.6803L709.885 70.6175L714.832 65.3603M644.42 58.1756L646.607 69.8731M644.42 58.1756L712.11 53.8164L714.832 65.3603M646.607 69.8731L714.832 65.3603" stroke="white"/>
<path d="M608.939 67.4733H597.395L610.131 118.253H621.427L608.939 67.4733Z" fill="#C4C4C4"/>
<path d="M599.362 59.2085L597.395 67.4733H608.939L610.907 59.2085H599.362Z" fill="#C4C4C4"/>
<path d="M610.907 59.2085L608.939 67.4733L621.427 118.253L623.435 110.22L610.907 59.2085Z" fill="#C4C4C4"/>
<path d="M597.395 67.4733L599.362 59.2085H610.907M597.395 67.4733H608.939M597.395 67.4733L610.131 118.253H621.427M610.907 59.2085L608.939 67.4733M610.907 59.2085L623.435 110.22L621.427 118.253M608.939 67.4733L621.427 118.253" stroke="white"/>
<path d="M527.961 36.6172L518.389 30.1631L500.561 79.3862L509.927 85.7013L527.961 36.6172Z" fill="#C4C4C4"/>
<path d="M524.641 24.4107L518.389 30.1631L527.961 36.6172L534.213 30.8647L524.641 24.4107Z" fill="#C4C4C4"/>
<path d="M534.213 30.8647L527.961 36.6172L509.927 85.7013L516.082 80.1639L534.213 30.8647Z" fill="#C4C4C4"/>
<path d="M518.389 30.1631L524.641 24.4107L534.213 30.8647M518.389 30.1631L527.961 36.6172M518.389 30.1631L500.561 79.3862L509.927 85.7013M534.213 30.8647L527.961 36.6172M534.213 30.8647L516.082 80.1639L509.927 85.7013M527.961 36.6172L509.927 85.7013" stroke="white"/>
<path d="M571.754 -5.82082L571.729 -17.3653L520.977 -4.52114L521.001 6.77469L571.754 -5.82082Z" fill="#C4C4C4"/>
<path d="M579.998 -15.415L571.729 -17.3653L571.754 -5.82082L580.023 -3.87053L579.998 -15.415Z" fill="#C4C4C4"/>
<path d="M580.023 -3.87053L571.754 -5.82082L521.001 6.77469L529.038 8.76582L580.023 -3.87053Z" fill="#C4C4C4"/>
<path d="M571.729 -17.3653L579.998 -15.415L580.023 -3.87053M571.729 -17.3653L571.754 -5.82082M571.729 -17.3653L520.977 -4.52114L521.001 6.77469M580.023 -3.87053L571.754 -5.82082M580.023 -3.87053L529.038 8.76582L521.001 6.77469M571.754 -5.82082L521.001 6.77469" stroke="white"/>
<path d="M501.72 127.44L509.977 118.621L508.508 112.151L500.134 121.39L501.72 127.44Z" fill="#C4C4C4"/>
<path d="M500.134 121.39L508.508 112.151L462.786 71.0444L454.784 79.6102L500.134 121.39Z" fill="#C4C4C4"/>
<path d="M501.72 127.44L500.134 121.39L454.784 79.6102L454.784 85.933L501.72 127.44Z" fill="#C4C4C4"/>
<path d="M501.72 127.44L509.977 118.621L508.508 112.151M501.72 127.44L500.134 121.39M501.72 127.44L454.784 85.933L454.784 79.6102M500.134 121.39L508.508 112.151M500.134 121.39L454.784 79.6102M508.508 112.151L462.786 71.0444L454.784 79.6102" stroke="white"/>
<path d="M270.574 47.7036L279.87 53.0221L322.233 6.84076L313.214 1.73779L270.574 47.7036Z" fill="#C4C4C4"/>
<path d="M279.87 53.0221L281.443 60.0518L323.539 14.4359L322.233 6.84076L279.87 53.0221Z" fill="#C4C4C4"/>
<path d="M270.574 47.7036L272.193 54.7333L281.443 60.0518L279.87 53.0221L270.574 47.7036Z" fill="#C4C4C4"/>
<path d="M270.574 47.7036L272.193 54.7333L281.443 60.0518M270.574 47.7036L279.87 53.0221M270.574 47.7036L313.214 1.73779L322.233 6.84076M279.87 53.0221L281.443 60.0518M279.87 53.0221L322.233 6.84076M281.443 60.0518L323.539 14.4359L322.233 6.84076" stroke="white"/>
<path d="M440.868 138.17L449.332 131.608L422.818 74.825L414.658 81.2135L440.868 138.17Z" fill="#C4C4C4"/>
<path d="M449.332 131.608L456.43 132.838L430.336 76.5175L422.818 74.825L449.332 131.608Z" fill="#C4C4C4"/>
<path d="M440.868 138.17L447.984 139.357L456.43 132.838L449.332 131.608L440.868 138.17Z" fill="#C4C4C4"/>
<path d="M440.868 138.17L447.984 139.357L456.43 132.838M440.868 138.17L449.332 131.608M440.868 138.17L414.658 81.2135L422.818 74.825M449.332 131.608L456.43 132.838M449.332 131.608L422.818 74.825M456.43 132.838L430.336 76.5175L422.818 74.825" stroke="white"/>
<path d="M371.403 -6.07799L372.097 4.60931L433.987 14.458L433.266 4.12035L371.403 -6.07799Z" fill="#C4C4C4"/>
<path d="M372.097 4.60931L367.102 9.79955L428.373 19.7375L433.987 14.458L372.097 4.60931Z" fill="#C4C4C4"/>
<path d="M371.403 -6.07799L366.434 -0.849183L367.102 9.79955L372.097 4.60931L371.403 -6.07799Z" fill="#C4C4C4"/>
<path d="M371.403 -6.07799L366.434 -0.849183L367.102 9.79955M371.403 -6.07799L372.097 4.60931M371.403 -6.07799L433.266 4.12035L433.987 14.458M372.097 4.60931L367.102 9.79955M372.097 4.60931L433.987 14.458M367.102 9.79955L428.373 19.7375L433.987 14.458" stroke="white"/>
<path d="M460.215 45.9333L455.849 36.154L394.396 48.4381L398.666 57.8802L460.215 45.9333Z" fill="#C4C4C4"/>
<path d="M455.849 36.154L458.727 29.5508L397.824 41.5361L394.396 48.4381L455.849 36.154Z" fill="#C4C4C4"/>
<path d="M460.215 45.9333L463.056 39.3029L458.727 29.5508L455.849 36.154L460.215 45.9333Z" fill="#C4C4C4"/>
<path d="M460.215 45.9333L463.056 39.3029L458.727 29.5508M460.215 45.9333L455.849 36.154M460.215 45.9333L398.666 57.8802L394.396 48.4381M455.849 36.154L458.727 29.5508M455.849 36.154L394.396 48.4381M458.727 29.5508L397.824 41.5361L394.396 48.4381" stroke="white"/>
<path d="M309.134 138.946L319.844 138.856L333.165 77.6194L322.804 77.7563L309.134 138.946Z" fill="#C4C4C4"/>
<path d="M319.844 138.856L324.744 144.135L338.12 83.522L333.165 77.6194L319.844 138.856Z" fill="#C4C4C4"/>
<path d="M309.134 138.946L314.075 144.202L324.744 144.135L319.844 138.856L309.134 138.946Z" fill="#C4C4C4"/>
<path d="M309.134 138.946L314.075 144.202L324.744 144.135M309.134 138.946L319.844 138.856M309.134 138.946L322.804 77.7563L333.165 77.6194M319.844 138.856L324.744 144.135M319.844 138.856L333.165 77.6194M324.744 144.135L338.12 83.522L333.165 77.6194" stroke="white"/>
<path d="M349.263 28.3418L359.357 21.7055L359.446 15.0709L349.14 22.0887L349.263 28.3418Z" fill="#C4C4C4"/>
<path d="M349.14 22.0887L359.446 15.0709L324.639 -35.6108L314.851 -29.1605L349.14 22.0887Z" fill="#C4C4C4"/>
<path d="M349.263 28.3418L349.14 22.0887L314.851 -29.1605L313.369 -23.0139L349.263 28.3418Z" fill="#C4C4C4"/>
<path d="M349.263 28.3418L359.357 21.7055L359.446 15.0709M349.263 28.3418L349.14 22.0887M349.263 28.3418L313.369 -23.0139L314.851 -29.1605M349.14 22.0887L359.446 15.0709M349.14 22.0887L314.851 -29.1605M359.446 15.0709L324.639 -35.6108L314.851 -29.1605" stroke="white"/>
<path d="M479.476 -15.0023L467.909 -11.5183L465.932 -5.18423L477.812 -8.9736L479.476 -15.0023Z" fill="#C4C4C4"/>
<path d="M477.812 -8.9736L465.932 -5.18423L484.851 53.3156L496.072 49.9224L477.812 -8.9736Z" fill="#C4C4C4"/>
<path d="M479.476 -15.0023L477.812 -8.9736L496.072 49.9224L499.245 44.4534L479.476 -15.0023Z" fill="#C4C4C4"/>
<path d="M479.476 -15.0023L467.909 -11.5183L465.932 -5.18423M479.476 -15.0023L477.812 -8.9736M479.476 -15.0023L499.245 44.4534L496.072 49.9224M477.812 -8.9736L465.932 -5.18423M477.812 -8.9736L496.072 49.9224M465.932 -5.18423L484.851 53.3156L496.072 49.9224" stroke="white"/>
<path d="M406.527 98.7967L400.598 88.2712L393.985 87.7275L400.28 98.4909L406.527 98.7967Z" fill="#C4C4C4"/>
<path d="M400.28 98.4909L393.985 87.7275L341.037 118.98L346.802 129.187L400.28 98.4909Z" fill="#C4C4C4"/>
<path d="M406.527 98.7967L400.28 98.4909L346.802 129.187L352.833 131.087L406.527 98.7967Z" fill="#C4C4C4"/>
<path d="M406.527 98.7967L400.598 88.2712L393.985 87.7275M406.527 98.7967L400.28 98.4909M406.527 98.7967L352.833 131.087L346.802 129.187M400.28 98.4909L393.985 87.7275M400.28 98.4909L346.802 129.187M393.985 87.7275L341.037 118.98L346.802 129.187" stroke="white"/>
<path d="M328.474 32.2283L324.667 42.8014L330.739 40.975L335.192 29.9397L328.474 32.2283Z" fill="#C4C4C4"/>
<path d="M335.192 29.9397L330.739 40.975L390.666 73.8948L394.586 62.7007L335.192 29.9397Z" fill="#C4C4C4"/>
<path d="M330.739 40.975L324.667 42.8014L383.667 75.6624L390.666 73.8948L330.739 40.975Z" fill="#C4C4C4"/>
<path d="M324.667 42.8014L328.474 32.2283L335.192 29.9397M324.667 42.8014L330.739 40.975M324.667 42.8014L383.667 75.6624L390.666 73.8948M335.192 29.9397L330.739 40.975M335.192 29.9397L394.586 62.7007L390.666 73.8948M330.739 40.975L390.666 73.8948" stroke="white"/>
<path d="M288.673 90.4123L291.401 79.1947L239.05 79.5728L236.381 90.5488L288.673 90.4123Z" fill="#C4C4C4"/>
<path d="M298.967 83.0595L291.401 79.1947L288.673 90.4123L296.239 94.2772L298.967 83.0595Z" fill="#C4C4C4"/>
<path d="M296.239 94.2772L288.673 90.4123L236.381 90.5488L243.712 94.398L296.239 94.2772Z" fill="#C4C4C4"/>
<path d="M291.401 79.1947L298.967 83.0595L296.239 94.2772M291.401 79.1947L288.673 90.4123M291.401 79.1947L239.05 79.5728L236.381 90.5488M296.239 94.2772L288.673 90.4123M296.239 94.2772L243.712 94.398L236.381 90.5488M288.673 90.4123L236.381 90.5488" stroke="white"/>
<path d="M222.588 69.793L213.016 63.3389L195.188 112.562L204.554 118.877L222.588 69.793Z" fill="#C4C4C4"/>
<path d="M219.268 57.5864L213.016 63.3389L222.588 69.793L228.84 64.0405L219.268 57.5864Z" fill="#C4C4C4"/>
<path d="M228.84 64.0405L222.588 69.793L204.554 118.877L210.709 113.34L228.84 64.0405Z" fill="#C4C4C4"/>
<path d="M213.016 63.3389L219.268 57.5864L228.84 64.0405M213.016 63.3389L222.588 69.793M213.016 63.3389L195.188 112.562L204.554 118.877M228.84 64.0405L222.588 69.793M228.84 64.0405L210.709 113.34L204.554 118.877M222.588 69.793L204.554 118.877" stroke="white"/>
<path d="M253.682 -6.5096L242.3 -8.43714L246.379 43.7559L257.516 45.6419L253.682 -6.5096Z" fill="#C4C4C4"/>
<path d="M245.62 -16.2574L242.3 -8.43714L253.682 -6.5096L257.002 -14.3298L245.62 -16.2574Z" fill="#C4C4C4"/>
<path d="M257.002 -14.3298L253.682 -6.5096L257.516 45.6419L260.838 38.0574L257.002 -14.3298Z" fill="#C4C4C4"/>
<path d="M242.3 -8.43714L245.62 -16.2574L257.002 -14.3298M242.3 -8.43714L253.682 -6.5096M242.3 -8.43714L246.379 43.7559L257.516 45.6419M257.002 -14.3298L253.682 -6.5096M257.002 -14.3298L260.838 38.0574L257.516 45.6419M253.682 -6.5096L257.516 45.6419" stroke="white"/>
<path d="M-8 20.9687L1.29585 26.2873L43.6591 -19.8941L34.6399 -24.9971L-8 20.9687Z" fill="#C4C4C4"/>
<path d="M1.29585 26.2873L2.86829 33.317L44.9645 -12.299L43.6591 -19.8941L1.29585 26.2873Z" fill="#C4C4C4"/>
<path d="M-8 20.9687L-6.38132 27.9984L2.86829 33.317L1.29585 26.2873L-8 20.9687Z" fill="#C4C4C4"/>
<path d="M-8 20.9687L-6.38132 27.9984L2.86829 33.317M-8 20.9687L1.29585 26.2873M-8 20.9687L34.6399 -24.9971L43.6591 -19.8941M1.29585 26.2873L2.86829 33.317M1.29585 26.2873L43.6591 -19.8941M2.86829 33.317L44.9645 -12.299L43.6591 -19.8941" stroke="white"/>
<path d="M181.486 166.503L189.95 159.941L163.435 103.158L155.276 109.546L181.486 166.503Z" fill="#C4C4C4"/>
<path d="M189.95 159.941L197.047 161.17L170.953 104.85L163.435 103.158L189.95 159.941Z" fill="#C4C4C4"/>
<path d="M181.486 166.503L188.601 167.69L197.047 161.17L189.95 159.941L181.486 166.503Z" fill="#C4C4C4"/>
<path d="M181.486 166.503L188.601 167.69L197.047 161.17M181.486 166.503L189.95 159.941M181.486 166.503L155.276 109.546L163.435 103.158M189.95 159.941L197.047 161.17M189.95 159.941L163.435 103.158M197.047 161.17L170.953 104.85L163.435 103.158" stroke="white"/>
<path d="M128.298 -21.6341L128.991 -10.9468L190.881 -1.09817L190.161 -11.4358L128.298 -21.6341Z" fill="#C4C4C4"/>
<path d="M128.991 -10.9468L123.996 -5.7566L185.267 4.18136L190.881 -1.09817L128.991 -10.9468Z" fill="#C4C4C4"/>
<path d="M128.298 -21.6341L123.328 -16.4053L123.996 -5.7566L128.991 -10.9468L128.298 -21.6341Z" fill="#C4C4C4"/>
<path d="M128.298 -21.6341L123.328 -16.4053L123.996 -5.7566M128.298 -21.6341L128.991 -10.9468M128.298 -21.6341L190.161 -11.4358L190.881 -1.09817M128.991 -10.9468L123.996 -5.7566M128.991 -10.9468L190.881 -1.09817M123.996 -5.7566L185.267 4.18136L190.881 -1.09817" stroke="white"/>
<path d="M231.241 11.4983L223.029 4.62375L173.185 42.6104L181.163 49.224L231.241 11.4983Z" fill="#C4C4C4"/>
<path d="M223.029 4.62375L222.721 -2.57308L173.24 34.9041L173.185 42.6104L223.029 4.62375Z" fill="#C4C4C4"/>
<path d="M231.241 11.4983L230.887 4.29329L222.721 -2.57308L223.029 4.62375L231.241 11.4983Z" fill="#C4C4C4"/>
<path d="M231.241 11.4983L230.887 4.29329L222.721 -2.57308M231.241 11.4983L223.029 4.62375M231.241 11.4983L181.163 49.224L173.185 42.6104M223.029 4.62375L222.721 -2.57308M223.029 4.62375L173.185 42.6104M222.721 -2.57308L173.24 34.9041L173.185 42.6104" stroke="white"/>
<path d="M5.1618 104.395L15.8712 104.305L29.1927 43.0686L18.8309 43.2055L5.1618 104.395Z" fill="#C4C4C4"/>
<path d="M15.8712 104.305L20.7716 109.585L34.1474 48.9712L29.1927 43.0686L15.8712 104.305Z" fill="#C4C4C4"/>
<path d="M5.1618 104.395L10.1022 109.652L20.7716 109.585L15.8712 104.305L5.1618 104.395Z" fill="#C4C4C4"/>
<path d="M5.1618 104.395L10.1022 109.652L20.7716 109.585M5.1618 104.395L15.8712 104.305M5.1618 104.395L18.8309 43.2055L29.1927 43.0686M15.8712 104.305L20.7716 109.585M15.8712 104.305L29.1927 43.0686M20.7716 109.585L34.1474 48.9712L29.1927 43.0686" stroke="white"/>
<path d="M166.628 80.832L176.722 74.1957L176.812 67.5611L166.505 74.579L166.628 80.832Z" fill="#C4C4C4"/>
<path d="M166.505 74.579L176.812 67.5611L142.005 16.8794L132.217 23.3298L166.505 74.579Z" fill="#C4C4C4"/>
<path d="M166.628 80.832L166.505 74.579L132.217 23.3298L130.734 29.4763L166.628 80.832Z" fill="#C4C4C4"/>
<path d="M166.628 80.832L176.722 74.1957L176.812 67.5611M166.628 80.832L166.505 74.579M166.628 80.832L130.734 29.4763L132.217 23.3298M166.505 74.579L176.812 67.5611M166.505 74.579L132.217 23.3298M176.812 67.5611L142.005 16.8794L132.217 23.3298" stroke="white"/>
<path d="M144.894 125.828L138.965 115.302L132.352 114.759L138.647 125.522L144.894 125.828Z" fill="#C4C4C4"/>
<path d="M138.647 125.522L132.352 114.759L79.4047 146.011L85.1692 156.218L138.647 125.522Z" fill="#C4C4C4"/>
<path d="M144.894 125.828L138.647 125.522L85.1692 156.218L91.1997 158.119L144.894 125.828Z" fill="#C4C4C4"/>
<path d="M144.894 125.828L138.965 115.302L132.352 114.759M144.894 125.828L138.647 125.522M144.894 125.828L91.1997 158.119L85.1692 156.218M138.647 125.522L132.352 114.759M138.647 125.522L85.1692 156.218M132.352 114.759L79.4047 146.011L85.1692 156.218" stroke="white"/>
<path d="M43.7391 165.963L46.5516 155.705L40.9569 157.876L37.5684 168.619L43.7391 165.963Z" fill="#C4C4C4"/>
<path d="M37.5684 168.619L40.9569 157.876L-18.0266 131.232L-20.8994 142.085L37.5684 168.619Z" fill="#C4C4C4"/>
<path d="M40.9569 157.876L46.5516 155.705L-11.5516 129.047L-18.0266 131.232L40.9569 157.876Z" fill="#C4C4C4"/>
<path d="M46.5516 155.705L43.7391 165.963L37.5684 168.619M46.5516 155.705L40.9569 157.876M46.5516 155.705L-11.5516 129.047L-18.0266 131.232M37.5684 168.619L40.9569 157.876M37.5684 168.619L-20.8994 142.085L-18.0266 131.232M40.9569 157.876L-18.0266 131.232" stroke="white"/>
<path d="M81.3689 51.7693L77.5617 62.3424L83.6331 60.516L88.0866 49.4807L81.3689 51.7693Z" fill="#C4C4C4"/>
<path d="M88.0866 49.4807L83.6331 60.516L143.561 93.4358L147.48 82.2417L88.0866 49.4807Z" fill="#C4C4C4"/>
<path d="M83.6331 60.516L77.5617 62.3424L136.562 95.2034L143.561 93.4358L83.6331 60.516Z" fill="#C4C4C4"/>
<path d="M77.5617 62.3424L81.3689 51.7693L88.0866 49.4807M77.5617 62.3424L83.6331 60.516M77.5617 62.3424L136.562 95.2034L143.561 93.4358M88.0866 49.4807L83.6331 60.516M88.0866 49.4807L147.48 82.2417L143.561 93.4358M83.6331 60.516L143.561 93.4358" stroke="white"/>
<path d="M-7.2331 60.2185L-4.50542 49.0008L-56.8563 49.3789L-59.5252 60.355L-7.2331 60.2185Z" fill="#C4C4C4"/>
<path d="M3.06045 52.8657L-4.50542 49.0008L-7.2331 60.2185L0.332767 64.0833L3.06045 52.8657Z" fill="#C4C4C4"/>
<path d="M0.332767 64.0833L-7.2331 60.2185L-59.5252 60.355L-52.1945 64.2042L0.332767 64.0833Z" fill="#C4C4C4"/>
<path d="M-4.50542 49.0008L3.06045 52.8657L0.332767 64.0833M-4.50542 49.0008L-7.2331 60.2185M-4.50542 49.0008L-56.8563 49.3789L-59.5252 60.355M0.332767 64.0833L-7.2331 60.2185M0.332767 64.0833L-52.1945 64.2042L-59.5252 60.355M-7.2331 60.2185L-59.5252 60.355" stroke="white"/>
<path d="M74.9612 93.3096L65.3893 86.8555L47.5611 136.079L56.9268 142.394L74.9612 93.3096Z" fill="#C4C4C4"/>
<path d="M71.6413 81.103L65.3893 86.8555L74.9612 93.3096L81.2132 87.5571L71.6413 81.103Z" fill="#C4C4C4"/>
<path d="M81.2132 87.5571L74.9612 93.3096L56.9268 142.394L63.0825 136.856L81.2132 87.5571Z" fill="#C4C4C4"/>
<path d="M65.3893 86.8555L71.6413 81.103L81.2132 87.5571M65.3893 86.8555L74.9612 93.3096M65.3893 86.8555L47.5611 136.079L56.9268 142.394M81.2132 87.5571L74.9612 93.3096M81.2132 87.5571L63.0825 136.856L56.9268 142.394M74.9612 93.3096L56.9268 142.394" stroke="white"/>
<path d="M82.8599 -19.9207L71.4775 -21.8483L75.5569 30.3448L86.6942 32.2308L82.8599 -19.9207Z" fill="#C4C4C4"/>
<path d="M74.7976 -29.6685L71.4775 -21.8483L82.8599 -19.9207L86.1801 -27.741L74.7976 -29.6685Z" fill="#C4C4C4"/>
<path d="M86.1801 -27.741L82.8599 -19.9207L86.6942 32.2308L90.0153 24.6463L86.1801 -27.741Z" fill="#C4C4C4"/>
<path d="M71.4775 -21.8483L74.7976 -29.6685L86.1801 -27.741M71.4775 -21.8483L82.8599 -19.9207M71.4775 -21.8483L75.5569 30.3448L86.6942 32.2308M86.1801 -27.741L82.8599 -19.9207M86.1801 -27.741L90.0153 24.6463L86.6942 32.2308M82.8599 -19.9207L86.6942 32.2308" stroke="white"/>
</g>
<defs>
<filter id="filter0_d" x="-98" y="-49.8003" width="941" height="246.995" filterUnits="userSpaceOnUse" color-interpolation-filters="sRGB">
<feFlood flood-opacity="0" result="BackgroundImageFix"/>
<feColorMatrix in="SourceAlpha" type="matrix" values="0 0 0 0 0 0 0 0 0 0 0 0 0 0 0 0 0 0 127 0"/>
<feOffset dx="3" dy="3"/>
<feGaussianBlur stdDeviation="2.5"/>
<feColorMatrix type="matrix" values="0 0 0 0 0 0 0 0 0 0 0 0 0 0 0 0 0 0 1 0"/>
<feBlend mode="normal" in2="BackgroundImageFix" result="effect1_dropShadow"/>
<feBlend mode="normal" in="SourceGraphic" in2="effect1_dropShadow" result="shape"/>
</filter>
</defs>
</svg>
